<?xml version="1.0" standalone="no"?>
<!DOCTYPE svg PUBLIC "-//W3C//DTD SVG 20010904//EN"
 "http://www.w3.org/TR/2001/REC-SVG-20010904/DTD/svg10.dtd">
<svg version="1.0" xmlns="http://www.w3.org/2000/svg"
 width="243.000000pt" height="234.000000pt" viewBox="0 0 243.000000 234.000000"
 preserveAspectRatio="xMidYMid meet">
<metadata>
Created by potrace 1.16, written by Peter Selinger 2001-2019
</metadata>
<g transform="translate(0.000000,234.000000) scale(0.100000,-0.100000)"
fill="#000000" stroke="none">
<path d="M1178 2328 c-25 -9 -28 -14 -28 -58 0 -27 -6 -54 -12 -60 -7 -6 -134
-78 -281 -160 -397 -220 -542 -275 -749 -287 l-108 -6 0 -63 0 -64 185 0 c102
0 185 -4 185 -8 0 -7 -130 -378 -216 -619 l-26 -73 -64 0 c-63 0 -64 0 -64
-27 0 -72 103 -224 201 -297 50 -37 71 -46 165 -66 127 -27 213 -23 321 12
168 55 273 174 298 335 l7 43 -89 0 -88 0 -68 233 c-37 127 -81 286 -97 352
-36 139 -34 149 39 188 77 42 155 58 314 64 l147 6 0 -712 c0 -683 -1 -713
-19 -750 -23 -43 -80 -98 -142 -134 -62 -36 -239 -93 -337 -109 -62 -9 -81
-16 -77 -26 3 -8 5 -20 5 -28 0 -12 94 -14 640 -14 l640 0 0 29 c0 27 -2 29
-59 35 -151 17 -366 98 -445 166 -20 18 -46 50 -57 71 -18 37 -19 65 -19 755
l0 717 133 -6 c72 -3 159 -13 192 -22 80 -22 182 -72 195 -94 12 -23 -14 -120
-122 -463 l-82 -258 -78 0 c-90 0 -88 3 -63 -95 30 -115 103 -197 226 -255
124 -58 245 -72 386 -45 207 39 348 168 361 332 l5 63 -75 0 -75 0 -117 343
c-64 188 -116 345 -116 350 0 4 86 7 190 7 l190 0 0 64 0 63 -118 6 c-104 4
-134 10 -240 46 -67 22 -156 56 -199 76 -110 51 -554 304 -575 327 -11 13 -18
36 -18 63 0 39 -3 44 -31 54 -37 13 -35 13 -71 -1z m855 -1055 c54 -181 97
-331 97 -335 0 -5 -87 -8 -194 -8 l-194 0 47 183 c76 289 133 487 140 487 3 0
50 -147 104 -327z m-1514 253 c7 -30 47 -176 90 -325 l78 -271 -205 0 c-159 0
-203 3 -200 13 3 6 52 153 109 325 57 171 106 312 110 312 3 0 11 -24 18 -54z"/>
</g>
</svg>
