<?xml version="1.0" encoding="utf-8"?>
<svg width="512" height="512" viewBox="0 0 512 512" xmlns="http://www.w3.org/2000/svg">
  <defs>
    <radialGradient gradientUnits="userSpaceOnUse" cx="316.301" cy="195.697" r="108.302" id="gradient-1" spreadMethod="pad">
      <stop offset="0" style="stop-color: rgba(255, 190, 110, 1)"/>
      <stop offset="1" style="stop-color: rgba(255, 144, 8, 1)"/>
    </radialGradient>
  </defs>
  <title>ionicons-v5-n</title>
  <path d="M384,224V408a40,40,0,0,1-40,40H104a40,40,0,0,1-40-40V168a40,40,0,0,1,40-40H271.48" style="fill: none; stroke-linecap: round; stroke-linejoin: round; stroke-width: 24px; stroke: rgb(255, 185, 73);"/>
  <path d="M459.94,53.25a16.06,16.06,0,0,0-23.22-.56L424.35,65a8,8,0,0,0,0,11.31l11.34,11.32a8,8,0,0,0,11.34,0l12.06-12C465.19,69.54,465.76,59.62,459.94,53.25Z" style="stroke: rgb(255, 187, 78); stroke-opacity: 0; stroke-width: 0px; fill: rgb(255, 191, 73);"/>
  <path d="M399.34,90,218.82,270.2a9,9,0,0,0-2.31,3.93L208.16,299a3.91,3.91,0,0,0,4.86,4.86l24.85-8.35a9,9,0,0,0,3.93-2.31L422,112.66A9,9,0,0,0,422,100L412.05,90A9,9,0,0,0,399.34,90Z" style="stroke-width: 0px; stroke-opacity: 0; stroke: url(#gradient-1); paint-order: stroke; fill: rgb(255, 185, 73);"/>
</svg>